<svg width="20" height="20" viewBox="0 0 20 20" fill="none" xmlns="http://www.w3.org/2000/svg">
<g opacity="0.5">
<path d="M15.4167 5.83334C15.7482 5.83334 16.0661 5.70164 16.3005 5.46722C16.535 5.2328 16.6667 4.91486 16.6667 4.58334C16.6667 4.25182 16.535 3.93388 16.3005 3.69945C16.0661 3.46503 15.7482 3.33334 15.4167 3.33334C15.0851 3.33334 14.7672 3.46503 14.5328 3.69945C14.2984 3.93388 14.1667 4.25182 14.1667 4.58334C14.1667 4.91486 14.2984 5.2328 14.5328 5.46722C14.7672 5.70164 15.0851 5.83334 15.4167 5.83334ZM2.15833 9.65001L9.65833 2.15001C9.95833 1.85001 10.375 1.66667 10.8333 1.66667H16.6667C17.5917 1.66667 18.3333 2.40834 18.3333 3.33334V9.16667C18.3333 9.62501 18.15 10.0417 17.8417 10.3417L10.35 17.8417C10.0417 18.1417 9.62499 18.3333 9.16666 18.3333C8.70833 18.3333 8.29166 18.1417 7.99166 17.8417L2.15833 12.0083C1.84999 11.7083 1.66666 11.2917 1.66666 10.8333C1.66666 10.3667 1.85833 9.95001 2.15833 9.65001Z" fill="white"/>
</g>
</svg>
