<svg width="375" height="40" viewBox="0 0 375 40" fill="none" xmlns="http://www.w3.org/2000/svg">
<rect width="375" height="40" fill="black"/>
<g opacity="0.7" clip-path="url(#clip0_1_695)">
<path d="M356.75 23.75H346.25V13.25H356.75V23.75ZM356.75 11.75H346.25C345.852 11.75 345.471 11.908 345.189 12.1893C344.908 12.4706 344.75 12.8522 344.75 13.25V23.75C344.75 24.1478 344.908 24.5294 345.189 24.8107C345.471 25.092 345.852 25.25 346.25 25.25H356.75C357.148 25.25 357.529 25.092 357.811 24.8107C358.092 24.5294 358.25 24.1478 358.25 23.75V13.25C358.25 12.8522 358.092 12.4706 357.811 12.1893C357.529 11.908 357.148 11.75 356.75 11.75ZM343.25 14.75H341.75V26.75C341.75 27.1478 341.908 27.5294 342.189 27.8107C342.471 28.092 342.852 28.25 343.25 28.25H355.25V26.75H343.25V14.75ZM352.97 18.7175L350.908 21.3725L349.438 19.6025L347.375 22.25H355.625L352.97 18.7175Z" fill="white"/>
</g>
<g opacity="0.7">
<path d="M177 22.25C177.608 22.25 178.125 22.025 178.582 21.5825C179.025 21.125 179.25 20.6075 179.25 20C179.25 19.3925 179.025 18.875 178.582 18.4175C178.125 17.975 177.608 17.75 177 17.75C176.392 17.75 175.875 17.975 175.418 18.4175C174.975 18.875 174.75 19.3925 174.75 20C174.75 20.6075 174.975 21.125 175.418 21.5825C175.875 22.025 176.392 22.25 177 22.25ZM177 12.5C179.062 12.5 180.825 13.25 182.287 14.7125C183.75 16.175 184.5 17.9375 184.5 20V21.0875C184.5 21.8375 184.238 22.475 183.75 23C183.225 23.5025 182.625 23.75 181.875 23.75C180.975 23.75 180.233 23.375 179.67 22.625C178.92 23.375 178.035 23.75 177 23.75C175.972 23.75 175.088 23.375 174.345 22.655C173.625 21.9125 173.25 21.035 173.25 20C173.25 18.9725 173.625 18.0875 174.345 17.345C175.088 16.625 175.972 16.25 177 16.25C178.035 16.25 178.913 16.625 179.655 17.345C180.375 18.0875 180.75 18.9725 180.75 20V21.0875C180.75 21.395 180.87 21.665 181.095 21.8975C181.32 22.13 181.583 22.25 181.875 22.25C182.19 22.25 182.452 22.13 182.677 21.8975C182.903 21.665 183 21.395 183 21.0875V20C183 18.3575 182.422 16.9475 181.237 15.7625C180.052 14.5775 178.642 14 177 14C175.358 14 173.947 14.5775 172.762 15.7625C171.577 16.9475 171 18.3575 171 20C171 21.6425 171.577 23.0525 172.762 24.2375C173.947 25.4225 175.358 26 177 26H180.75V27.5H177C174.938 27.5 173.175 26.75 171.712 25.2875C170.25 23.825 169.5 22.0625 169.5 20C169.5 17.9375 170.25 16.175 171.712 14.7125C173.175 13.25 174.938 12.5 177 12.5Z" fill="white"/>
</g>
<g opacity="0.7">
<path d="M136.75 16.25H141.25V20.75H136.75V16.25ZM132.25 13.25H145.75V14.75H132.25V13.25ZM132.25 22.25H145.75V23.75H132.25V22.25ZM132.25 25.25H142.75V26.75H132.25V25.25Z" fill="white"/>
</g>
<g opacity="0.7">
<path d="M98 15.5H107.75" stroke="white" stroke-linecap="round" stroke-linejoin="round"/>
<path d="M98 20H107.75" stroke="white" stroke-linecap="round" stroke-linejoin="round"/>
<path d="M98 24.5H107.75" stroke="white" stroke-linecap="round" stroke-linejoin="round"/>
<path d="M94.25 15.5H94.26" stroke="white" stroke-width="2" stroke-linecap="round" stroke-linejoin="round"/>
<path d="M94.25 20H94.26" stroke="white" stroke-width="2" stroke-linecap="round" stroke-linejoin="round"/>
<path d="M94.25 24.5H94.26" stroke="white" stroke-width="2" stroke-linecap="round" stroke-linejoin="round"/>
</g>
<g opacity="0.7">
<path d="M61.5 16.25L60 19.25H62.25V23.75H57.75V19.25L59.25 16.25H61.5ZM67.5 16.25L66 19.25H68.25V23.75H63.75V19.25L65.25 16.25H67.5Z" fill="white"/>
</g>
<g opacity="0.7">
<path d="M29.875 14L30.745 17.2625L30.025 17.4575C29.6875 16.805 29.3425 16.1525 28.945 15.8225C28.5475 15.5 28.0825 15.5 27.625 15.5H25.75V23.375C25.75 23.75 25.75 24.125 25.9975 24.3125C26.2525 24.5 26.7475 24.5 27.25 24.5V25.25H22.75V24.5C23.2525 24.5 23.7475 24.5 24.0025 24.3125C24.25 24.125 24.25 23.75 24.25 23.375V15.5H22.375C21.9175 15.5 21.4525 15.5 21.055 15.8225C20.6575 16.1525 20.3125 16.805 19.975 17.4575L19.255 17.2625L20.125 14H29.875Z" fill="white"/>
</g>
<defs>
<clipPath id="clip0_1_695">
<rect width="18" height="18" fill="white" transform="translate(341 11)"/>
</clipPath>
</defs>
</svg>
